<?xml version="1.0" standalone="no"?>
<!DOCTYPE svg PUBLIC "-//W3C//DTD SVG 20010904//EN"
 "http://www.w3.org/TR/2001/REC-SVG-20010904/DTD/svg10.dtd">
<svg version="1.0" xmlns="http://www.w3.org/2000/svg" 
 width="96px" height="96px" viewBox="0 0 1280.000000 840.000000"
 preserveAspectRatio="xMidYMid meet">
<metadata>
Created by potrace 1.15, written by Peter Selinger 2001-2017
</metadata>
<g
fill="#fff" stroke="none">
<path d="M2315 8389 c-279 -34 -537 -128 -765 -280 -131 -86 -325 -282 -413
-414 -70 -107 -161 -289 -196 -394 -183 -544 -118 -1159 190 -1799 100 -209
156 -307 296 -520 215 -329 392 -549 663 -826 403 -412 817 -718 1305 -966
522 -265 1108 -431 1520 -430 158 1 143 12 -97 74 -445 115 -700 208 -1063
386 -350 172 -652 365 -950 608 -554 452 -1034 1044 -1350 1667 -204 401 -298
729 -312 1081 -18 468 130 874 419 1149 440 419 1124 490 1753 181 235 -115
416 -247 631 -461 264 -263 444 -524 640 -930 217 -450 355 -888 569 -1820
197 -855 332 -1350 365 -1330 18 11 -18 292 -116 910 -132 830 -217 1247 -334
1655 -208 721 -514 1291 -920 1713 -377 392 -816 638 -1300 727 -133 25 -408
34 -535 19z"/>
<path d="M7313 8019 c-417 -37 -826 -295 -1123 -709 -263 -367 -459 -880 -539
-1410 -36 -243 -45 -371 -45 -650 1 -477 50 -862 159 -1255 50 -178 116 -345
136 -345 15 0 10 78 -21 321 -74 594 -85 1080 -34 1544 105 956 517 1757 1058
2060 87 49 190 90 293 116 73 19 113 23 233 23 129 -1 155 -4 235 -28 488
-148 787 -673 736 -1293 -52 -632 -356 -1211 -932 -1779 -245 -241 -390 -361
-745 -620 -214 -156 -242 -179 -230 -191 20 -21 330 119 526 237 506 306 934
704 1226 1142 221 332 371 707 430 1078 26 163 24 452 -5 605 -77 422 -281
752 -591 962 -215 145 -496 216 -767 192z"/>
<path d="M10205 7953 c-78 -7 -251 -44 -305 -66 -83 -33 -205 -104 -259 -153
-118 -106 -173 -321 -123 -481 35 -112 104 -173 217 -192 185 -29 395 112 461
312 26 78 22 194 -10 262 -26 58 -105 150 -137 160 -65 21 67 51 216 48 307
-4 558 -160 700 -434 67 -130 95 -245 102 -415 7 -173 -11 -296 -68 -467 -158
-477 -597 -1021 -1114 -1380 -437 -304 -886 -488 -1460 -598 -93 -17 -174 -36
-179 -41 -16 -14 232 -9 355 7 983 129 1918 763 2396 1627 322 579 292 1190
-76 1559 -139 138 -319 223 -531 249 -83 10 -105 10 -185 3z"/>
<path d="M11640 6394 c-189 -51 -311 -231 -279 -411 13 -73 45 -122 105 -161
88 -59 148 -76 260 -77 96 0 103 2 175 37 89 44 168 118 206 191 34 68 42 166
19 233 -9 26 -16 49 -16 51 0 2 46 -20 103 -48 88 -46 116 -67 203 -153 90
-90 106 -112 151 -206 76 -155 88 -213 87 -410 0 -150 -3 -173 -27 -255 -199
-656 -861 -1037 -1982 -1139 -644 -59 -1231 -8 -1980 173 -88 21 -162 36 -165
34 -11 -10 39 -35 161 -83 307 -119 700 -209 1129 -257 218 -24 781 -24 1000
0 191 21 430 60 570 93 785 184 1293 619 1422 1219 7 35 12 122 12 210 -1 127
-5 165 -26 245 -59 222 -176 398 -352 527 -134 99 -277 151 -500 183 -170 23
-202 24 -276 4z"/>
<path d="M3246 5864 c-330 -80 -527 -418 -462 -793 53 -300 222 -591 511 -876
263 -260 625 -530 984 -735 155 -89 449 -235 457 -227 16 16 35 269 36 477 1
371 -38 635 -138 952 -156 494 -451 898 -802 1099 -184 105 -411 145 -586 103z"/>
<path d="M6570 5836 c-86 -24 -154 -67 -235 -150 -64 -64 -91 -101 -132 -181
-82 -160 -115 -290 -138 -540 -28 -302 -14 -556 47 -882 l21 -113 46 26 c450
258 780 655 889 1069 22 86 26 120 26 250 0 136 -2 157 -26 221 -84 234 -289
358 -498 300z"/>
<path d="M7700 4343 c-116 -58 -227 -213 -252 -353 -7 -36 -16 -68 -21 -71 -5
-4 -41 -10 -81 -14 -95 -9 -246 -40 -326 -66 -257 -84 -420 -262 -424 -464 -1
-91 22 -151 78 -203 55 -50 102 -66 181 -59 126 10 196 70 365 313 55 78 136
181 181 228 l80 85 30 -34 c108 -123 322 -63 453 128 134 194 110 446 -49 518
-62 28 -149 25 -215 -8z"/>
<path d="M6303 3283 c-94 -33 -189 -173 -200 -293 -10 -107 39 -189 125 -209
102 -22 215 55 278 192 60 133 31 262 -70 308 -49 22 -76 23 -133 2z"/>
<path d="M2109 3009 c-736 -44 -1339 -273 -1700 -645 -104 -107 -128 -136
-189 -229 -260 -399 -288 -848 -78 -1257 362 -705 1322 -1037 2323 -802 607
142 1174 504 1567 999 261 329 407 647 463 1014 13 83 -18 38 -135 -195 -63
-127 -149 -281 -191 -344 -184 -279 -401 -509 -681 -720 -504 -381 -1151 -582
-1744 -540 -646 45 -1127 312 -1337 742 -75 154 -92 227 -92 408 0 175 10 227
74 372 176 399 580 689 1166 838 268 69 471 97 794 110 573 23 1243 -49 2111
-225 330 -67 364 -72 358 -54 -6 20 -87 62 -228 118 -555 219 -1326 377 -2005
411 -220 11 -289 11 -476 -1z"/>
<path d="M5789 2855 c-101 -52 -179 -178 -187 -299 -5 -86 8 -134 50 -182 75
-86 204 -63 311 55 86 97 122 216 93 311 -9 30 -24 65 -35 77 -56 66 -149 81
-232 38z"/>
<path d="M3330 2405 c-356 -51 -644 -184 -840 -386 -75 -77 -122 -150 -158
-247 -21 -56 -25 -84 -26 -172 0 -98 2 -110 32 -175 159 -343 635 -368 1098
-57 274 185 615 524 833 830 40 57 72 105 70 107 -19 18 -332 87 -479 105
-113 13 -424 11 -530 -5z"/>
<path d="M5388 2301 c-236 -121 -410 -326 -604 -713 -94 -188 -117 -261 -118
-383 -1 -91 2 -105 28 -158 90 -185 299 -146 451 83 61 92 195 371 239 496 67
195 106 425 106 625 0 66 -3 89 -13 89 -7 0 -47 -18 -89 -39z"/>
</g>
</svg>
