<?xml version="1.0" standalone="no"?>
<!DOCTYPE svg PUBLIC "-//W3C//DTD SVG 20010904//EN"
 "http://www.w3.org/TR/2001/REC-SVG-20010904/DTD/svg10.dtd">
<svg version="1.0" xmlns="http://www.w3.org/2000/svg"
 width="50px" height="50px" viewBox="0 0 1280.000000 1056.000000"
 preserveAspectRatio="xMidYMid meet">
<metadata>
Created by potrace 1.15, written by Peter Selinger 2001-2017
</metadata>
<g transform="translate(0.000000,1056.000000) scale(0.100000,-0.100000)"
fill="#000000" stroke="none">
<path d="M1344 9407 c-307 -83 -434 -282 -474 -752 -5 -60 -12 -121 -15 -134
-8 -30 12 -197 31 -276 33 -129 60 -183 191 -381 82 -125 121 -212 149 -339 8
-38 20 -90 25 -115 6 -25 19 -94 30 -155 12 -60 24 -128 29 -150 4 -22 19
-101 34 -175 14 -74 31 -152 36 -172 21 -78 30 -116 54 -213 26 -107 79 -279
102 -332 8 -18 21 -49 29 -68 55 -128 115 -229 180 -302 25 -29 67 -65 93 -81
76 -46 244 -107 367 -132 161 -34 258 -52 315 -60 36 -5 99 -13 140 -19 148
-22 612 -57 864 -65 93 -4 171 -8 174 -10 2 -3 -38 -26 -89 -52 -588 -295
-1092 -620 -1340 -864 -116 -115 -152 -159 -192 -235 -59 -113 -59 -133 13
-600 23 -152 38 -228 51 -271 5 -17 9 -41 9 -54 0 -13 6 -51 14 -84 8 -34 22
-95 30 -136 9 -41 21 -91 26 -110 5 -19 24 -98 44 -175 94 -378 229 -791 325
-1000 16 -33 31 -71 36 -84 23 -73 181 -359 264 -476 75 -107 179 -220 250
-273 20 -15 38 -30 41 -33 6 -8 125 -70 165 -86 85 -34 266 -40 390 -13 80 17
165 40 182 49 10 4 56 26 103 47 88 41 252 145 330 211 218 184 455 473 634
773 14 25 31 52 36 60 69 111 340 650 340 675 0 3 11 28 24 57 48 105 159 402
241 643 26 77 51 149 56 160 4 11 22 63 39 115 17 52 35 104 40 115 5 11 23
63 40 115 16 52 34 102 39 110 4 8 18 49 31 90 12 41 26 80 30 85 4 6 20 43
34 84 15 41 40 104 56 139 17 35 30 66 30 69 0 4 14 28 31 55 40 62 62 63 83
1 13 -38 16 -95 16 -307 0 -279 20 -555 44 -622 20 -57 77 -134 122 -164 29
-19 50 -25 95 -25 49 0 63 5 96 31 61 49 101 109 124 186 19 64 22 108 30 465
5 218 13 412 19 434 22 82 62 58 126 -76 56 -119 125 -299 200 -525 14 -41 29
-84 34 -95 5 -11 25 -67 44 -125 68 -203 205 -593 250 -710 13 -36 33 -87 44
-115 10 -27 26 -66 35 -85 9 -19 28 -64 42 -100 15 -36 72 -156 126 -268 321
-658 659 -1101 1029 -1349 186 -125 351 -189 551 -214 210 -26 355 16 527 151
165 130 368 428 507 745 15 33 33 74 40 90 41 91 131 341 184 510 17 55 38
120 46 145 8 25 24 81 35 125 36 133 80 308 90 350 23 103 72 325 79 365 107
553 132 798 90 890 -69 152 -265 349 -537 538 -255 178 -601 383 -949 563
l-162 84 152 8 c314 15 724 46 882 67 377 48 652 115 798 193 218 116 366 431
502 1067 14 69 30 141 35 160 5 19 23 112 40 205 17 94 35 186 40 205 5 19 19
82 30 139 12 57 25 111 29 120 5 9 22 47 40 84 17 37 66 120 109 185 92 139
97 148 129 232 39 102 52 160 59 272 9 155 -27 456 -72 603 -63 203 -211 344
-411 392 -83 20 -356 29 -428 14 -27 -6 -86 -15 -130 -21 -44 -6 -91 -15 -105
-19 -14 -5 -50 -14 -80 -21 -64 -14 -73 -16 -245 -70 -164 -52 -336 -114 -529
-192 -171 -68 -163 -65 -349 -147 -75 -34 -142 -61 -147 -61 -6 0 -10 -4 -10
-10 0 -5 -5 -10 -12 -10 -6 0 -30 -9 -52 -19 -23 -11 -75 -35 -116 -54 -69
-32 -273 -128 -380 -180 -125 -60 -332 -183 -425 -251 -93 -69 -201 -152 -217
-166 -9 -8 -46 -40 -82 -70 -103 -87 -412 -404 -518 -531 -382 -459 -692 -931
-968 -1477 -29 -57 -59 -106 -67 -109 -8 -3 -25 -1 -39 5 -31 15 -32 57 -3
115 32 64 59 147 59 179 0 40 -26 97 -56 123 l-26 22 133 269 c72 148 144 294
158 324 15 30 32 64 39 75 23 41 272 555 272 563 0 4 14 21 31 38 44 41 99
158 99 211 0 38 -3 43 -23 43 -13 0 -37 -14 -55 -32 -35 -38 -92 -155 -92
-193 0 -14 -27 -78 -59 -142 -73 -146 -395 -800 -484 -984 l-66 -137 -58 2
c-32 0 -72 -3 -88 -7 l-31 -8 -124 253 c-68 139 -206 421 -307 626 -101 205
-183 384 -183 398 0 35 -54 147 -92 190 -34 39 -73 46 -83 14 -13 -41 38 -162
95 -225 14 -16 50 -77 78 -135 71 -148 431 -880 503 -1024 l59 -119 -29 -27
c-63 -60 -64 -141 -6 -270 19 -43 35 -87 35 -99 0 -27 -46 -58 -68 -45 -8 6
-49 75 -90 155 -204 396 -461 808 -715 1144 -31 41 -220 279 -227 285 -3 3
-38 43 -79 90 -91 104 -364 377 -446 445 -33 28 -69 58 -80 69 -117 107 -445
323 -615 403 -25 12 -115 55 -200 96 -85 41 -171 81 -190 90 -19 9 -75 34
-125 57 -94 44 -298 134 -400 177 -33 13 -74 31 -90 38 -17 8 -96 39 -175 70
-80 31 -154 60 -165 65 -39 17 -308 104 -405 131 -243 68 -390 91 -600 94
-153 3 -185 0 -256 -18z"/>
</g>
</svg>
