<svg version="1.2" xmlns="http://www.w3.org/2000/svg" viewBox="0 0 559 873" width="559" height="873"><style></style><path  d="m53.4 14.3c-30.7 8.3-43.4 28.2-47.4 75.2-0.5 6-1.2 12.1-1.5 13.4-0.8 3 1.2 19.7 3.1 27.6 3.3 12.9 6 18.3 19.1 38.1 8.2 12.5 12.1 21.2 14.9 33.9 0.8 3.8 2 9 2.5 11.5 0.6 2.5 1.9 9.4 3 15.5 1.2 6 2.4 12.8 2.9 15 0.4 2.2 1.9 10.1 3.4 17.5 1.4 7.4 3.1 15.2 3.6 17.2 2.1 7.8 3 11.6 5.4 21.3 2.6 10.7 7.9 27.9 10.2 33.2 0.8 1.8 2.1 4.9 2.9 6.8 5.5 12.8 11.5 22.9 18 30.2 2.5 2.9 6.7 6.5 9.3 8.1 7.6 4.6 24.4 10.7 36.7 13.2 16.1 3.4 25.8 5.2 31.5 6 3.6 0.5 9.9 1.3 14 1.9 14.8 2.2 61.2 5.7 86.4 6.5 9.3 0.4 17.1 0.8 17.4 1 0.2 0.3-3.8 2.6-8.9 5.2-58.8 29.5-109.2 62-134 86.4-11.6 11.5-15.2 15.9-19.2 23.5-5.9 11.3-5.9 13.3 1.3 60 2.3 15.2 3.8 22.8 5.1 27.1 0.5 1.7 0.9 4.1 0.9 5.4 0 1.3 0.6 5.1 1.4 8.4 0.8 3.4 2.2 9.5 3 13.6 0.9 4.1 2.1 9.1 2.6 11 0.5 1.9 2.4 9.8 4.4 17.5 9.4 37.8 22.9 79.1 32.5 100 1.6 3.3 3.1 7.1 3.6 8.4 2.3 7.3 18.1 35.9 26.4 47.6 7.5 10.7 17.9 22 25 27.3 2 1.5 3.8 3 4.1 3.3 0.6 0.8 12.5 7 16.5 8.6 8.5 3.4 26.6 4 39 1.3 8-1.7 16.5-4 18.2-4.9 1-0.4 5.6-2.6 10.3-4.7 8.8-4.1 25.2-14.5 33-21.1 21.8-18.4 45.5-47.3 63.4-77.3 1.4-2.5 3.1-5.2 3.6-6 6.9-11.1 34-65 34-67.5 0-0.3 1.1-2.8 2.4-5.7 4.8-10.5 15.9-40.2 24.1-64.3 2.6-7.7 5.1-14.9 5.6-16 0.4-1.1 2.2-6.3 3.9-11.5 1.7-5.2 3.5-10.4 4-11.5 0.5-1.1 2.3-6.3 4-11.5 1.6-5.2 3.4-10.2 3.9-11 0.4-0.8 1.8-4.9 3.1-9 1.2-4.1 2.6-8 3-8.5 0.4-0.6 2-4.3 3.4-8.4 1.5-4.1 4-10.4 5.6-13.9 1.7-3.5 3-6.6 3-6.9 0-0.4 1.4-2.8 3.1-5.5 4-6.2 6.2-6.3 8.3-0.1 1.3 3.8 1.6 9.5 1.6 30.7 0 27.9 2 55.5 4.4 62.2 2 5.7 7.7 13.4 12.2 16.4 2.9 1.9 5 2.5 9.5 2.5 4.9 0 6.3-0.5 9.6-3.1 6.1-4.9 10.1-10.9 12.4-18.6 1.9-6.4 2.2-10.8 3-46.5 0.5-21.8 1.3-41.2 1.9-43.4 2.2-8.2 6.2-5.8 12.6 7.6 5.6 11.9 12.5 29.9 20 52.5 1.4 4.1 2.9 8.4 3.4 9.5 0.5 1.1 2.5 6.7 4.4 12.5 6.8 20.3 20.5 59.3 25 71 1.3 3.6 3.3 8.7 4.4 11.5 1 2.7 2.6 6.6 3.5 8.5 0.9 1.9 2.8 6.4 4.2 10 1.5 3.6 7.2 15.6 12.6 26.8 32.1 65.8 65.9 110.1 102.9 134.9 18.6 12.5 35.1 18.9 55.1 21.4 21 2.6 35.5-1.6 52.7-15.1 16.5-13 36.8-42.8 50.7-74.5 1.5-3.3 3.3-7.4 4-9 4.1-9.1 13.1-34.1 18.4-51 1.7-5.5 3.8-12 4.6-14.5 0.8-2.5 2.4-8.1 3.5-12.5 3.6-13.3 8-30.8 9-35 2.3-10.3 7.2-32.5 7.9-36.5 10.7-55.3 13.2-79.8 9-89-6.9-15.2-26.5-34.9-53.7-53.8-25.5-17.8-60.1-38.3-94.9-56.3l-16.2-8.4 15.2-0.8c31.4-1.5 72.4-4.6 88.2-6.7 37.7-4.8 65.2-11.5 79.8-19.3 21.8-11.6 36.6-43.1 50.2-106.7 1.4-6.9 3-14.1 3.5-16 0.5-1.9 2.3-11.2 4-20.5 1.7-9.4 3.5-18.6 4-20.5 0.5-1.9 1.9-8.2 3-13.9 1.2-5.7 2.5-11.1 2.9-12 0.5-0.9 2.2-4.7 4-8.4 1.7-3.7 6.6-12 10.9-18.5 9.2-13.9 9.7-14.8 12.9-23.2 3.9-10.2 5.2-16 5.9-27.2 0.9-15.5-2.7-45.6-7.2-60.3-6.3-20.3-21.1-34.4-41.1-39.2-8.3-2-35.6-2.9-42.8-1.4-2.7 0.6-8.6 1.5-13 2.1-4.4 0.6-9.1 1.5-10.5 1.9-1.4 0.5-5 1.4-8 2.1-6.4 1.4-7.3 1.6-24.5 7-16.4 5.2-33.6 11.4-52.9 19.2-17.1 6.8-16.3 6.5-34.9 14.7-7.5 3.4-14.2 6.1-14.7 6.1-0.6 0-1 0.4-1 1 0 0.5-0.5 1-1.2 1-0.6 0-3 0.9-5.2 1.9-2.3 1.1-7.5 3.5-11.6 5.4-6.9 3.2-27.3 12.8-38 18-12.5 6-33.2 18.3-42.5 25.1-9.3 6.9-20.1 15.2-21.7 16.6-0.9 0.8-4.6 4-8.2 7-10.3 8.7-41.2 40.4-51.8 53.1-38.2 45.9-69.2 93.1-96.8 147.7-2.9 5.7-5.9 10.6-6.7 10.9-0.8 0.3-2.5 0.1-3.9-0.5-3.1-1.5-3.2-5.7-0.3-11.5 3.2-6.4 5.9-14.7 5.9-17.9 0-4-2.6-9.7-5.6-12.3l-2.6-2.2 13.3-26.9c7.2-14.8 14.4-29.4 15.8-32.4 1.5-3 3.2-6.4 3.9-7.5 2.3-4.1 27.2-55.5 27.2-56.3 0-0.4 1.4-2.1 3.1-3.8 4.4-4.1 9.9-15.8 9.9-21.1 0-3.8-0.3-4.3-2.3-4.3-1.3 0-3.7 1.4-5.5 3.2-3.5 3.8-9.2 15.5-9.2 19.3 0 1.4-2.7 7.8-5.9 14.2-7.3 14.6-39.5 80-48.4 98.4l-6.6 13.7-5.8-0.2c-3.2 0-7.2 0.3-8.8 0.7l-3.1 0.8-12.4-25.3c-6.8-13.9-20.6-42.1-30.7-62.6-10.1-20.5-18.3-38.4-18.3-39.8 0-3.5-5.4-14.7-9.2-19-3.4-3.9-7.3-4.6-8.3-1.4-1.3 4.1 3.8 16.2 9.5 22.5 1.4 1.6 5 7.7 7.8 13.5 7.1 14.8 43.1 88 50.3 102.4l5.9 11.9-2.9 2.7c-6.3 6-6.4 14.1-0.6 27 1.9 4.3 3.5 8.7 3.5 9.9 0 2.7-4.6 5.8-6.8 4.5-0.8-0.6-4.9-7.5-9-15.5-20.4-39.6-46.1-80.8-71.5-114.4-3.1-4.1-22-27.9-22.7-28.5-0.3-0.3-3.8-4.3-7.9-9-9.1-10.4-36.4-37.7-44.6-44.5-3.3-2.8-6.9-5.8-8-6.9-11.7-10.7-44.5-32.3-61.5-40.3-2.5-1.2-11.5-5.5-20-9.6-8.5-4.1-17.1-8.1-19-9-1.9-0.9-7.5-3.4-12.5-5.7-9.4-4.4-29.8-13.4-40-17.7-3.3-1.3-7.4-3.1-9-3.8-1.7-0.8-9.6-3.9-17.5-7-8-3.1-15.4-6-16.5-6.5-3.9-1.7-30.8-10.4-40.5-13.1-24.3-6.8-39-9.1-60-9.4-15.3-0.3-18.5 0-25.6 1.8z"/></svg>